<svg viewBox="383.25 434.3499999999999 255.50000000000023 191.62500000000017" fill="none" xmlns="http://www.w3.org/2000/svg" xmlns:xlink="http://www.w3.org/1999/xlink" overflow="visible" width="255.50000000000023px" height="191.62500000000017px"><g id="Master/Stickers/Email Success"><g id="Blush/Stickers/Email Success"><g id="Group 3"><g id="Group 2"><g id="Group"><g id="Group 20"><path id="Rectangle (Stroke)" fill-rule="evenodd" clip-rule="evenodd" d="M595 479H417C403.745 479 393 489.745 393 503V594C393 607.255 403.745 618 417 618H595C608.255 618 619 607.255 619 594V503C619 489.745 608.255 479 595 479ZM417 476C402.088 476 390 488.088 390 503V594C390 608.912 402.088 621 417 621H595C609.912 621 622 608.912 622 594V503C622 488.088 609.912 476 595 476H417Z" fill="#1d202c"/></g><path id="Path 2 (Stroke)" fill-rule="evenodd" clip-rule="evenodd" d="M418.34 515.069C417.573 514.547 416.907 514.069 416.583 513.737L418.733 511.644C418.732 511.643 418.731 511.643 418.731 511.643C418.731 511.642 418.755 511.665 418.817 511.716C418.882 511.77 418.971 511.839 419.087 511.925C419.32 512.099 419.633 512.32 420.029 512.589C420.819 513.127 421.898 513.831 423.231 514.679C425.895 516.375 429.539 518.628 433.831 521.247C442.415 526.483 453.571 533.166 464.634 539.752C475.695 546.337 486.66 552.822 494.859 557.661C498.959 560.08 502.367 562.088 504.75 563.491C505.942 564.192 506.877 564.742 507.514 565.117L507.745 565.253L598.686 513.722L600.165 516.332L507.718 568.716L506.971 568.278L507.731 566.985C506.971 568.278 506.971 568.278 506.97 568.277L505.994 567.703C505.356 567.328 504.42 566.778 503.228 566.076C500.844 564.673 497.435 562.664 493.334 560.244C485.133 555.404 474.165 548.917 463.099 542.33C452.034 535.743 440.867 529.053 432.269 523.808C427.971 521.186 424.309 518.922 421.62 517.21C420.277 516.355 419.168 515.632 418.34 515.069Z" fill="#1d202c"/></g></g><g id="Group 4"><g id="Group 19"><mask id="mask0_301_26852f081c19-b4a9-49ef-9eb5-5b52740401f5" style="mask-type:alpha" maskUnits="userSpaceOnUse" x="562" y="446" width="72" height="73" fill="#ffffff"><path id="Clip 18" fill-rule="evenodd" clip-rule="evenodd" d="M562.575 446.118H633.91V518.444H562.575V446.118Z" fill="#f96d24"/></mask><g mask="url(#mask0_301_26852f081c19-b4a9-49ef-9eb5-5b52740401f5)"><path id="Fill 17" fill-rule="evenodd" clip-rule="evenodd" d="M562.593 481.097C561.935 502.006 578.788 519.092 599.41 518.425C618.085 517.821 633.295 502.399 633.891 483.464C634.549 462.557 617.697 445.47 597.075 446.137C578.399 446.742 563.19 462.163 562.593 481.097" fill="#1d202c"/></g></g><path id="Fill 22" fill-rule="evenodd" clip-rule="evenodd" d="M597.002 500.197C596.137 500.197 595.323 499.86 594.708 499.247L579.582 484.163C578.304 482.888 578.292 480.801 579.555 479.511C580.82 478.219 582.889 478.207 584.169 479.483L596.804 492.082L611.483 471.691C611.996 470.981 612.75 470.513 613.61 470.375C614.472 470.237 615.335 470.445 616.04 470.962C616.041 470.962 616.041 470.963 616.041 470.963C617.496 472.029 617.82 474.091 616.763 475.558L600.068 498.749C599.54 499.482 598.733 499.96 597.852 500.077C597.572 500.157 597.288 500.197 597.002 500.197" fill="#f96d24"/></g></g></g></g></svg>