<svg viewBox="396.0250000000001 434.3499999999999 242.72499999999994 229.95000000000022" fill="none" xmlns="http://www.w3.org/2000/svg" xmlns:xlink="http://www.w3.org/1999/xlink" overflow="visible" width="242.72499999999994px" height="229.95000000000022px"><g id="Master/Stickers/Follower"><g id="Blush/Stickers/Follower"><g id="Group 2"><path id="Combined Shape (Stroke)" fill-rule="evenodd" clip-rule="evenodd" d="M433.5 449C419.417 449 408 460.417 408 474.5V606.208C408 620.292 419.417 631.708 433.5 631.708H489.095L522.382 659.545L555.668 631.708H607.5C621.583 631.708 633 620.292 633 606.208V474.5C633 460.417 621.583 449 607.5 449H433.5ZM405 474.5C405 458.76 417.76 446 433.5 446H607.5C623.24 446 636 458.76 636 474.5V606.208C636 621.949 623.24 634.708 607.5 634.708H556.757L522.382 663.455L488.006 634.708H433.5C417.76 634.708 405 621.949 405 606.208V474.5Z" fill="#1d202c"/><g id="Group"><path id="Fill 1" fill-rule="evenodd" clip-rule="evenodd" d="M549.786 511.433C549.786 528.244 536.349 541.867 519.768 541.867C503.187 541.867 489.75 528.244 489.75 511.433C489.75 494.623 503.187 481 519.768 481C536.349 481 549.786 494.623 549.786 511.433" fill="#f96d24"/><path id="Fill 3" fill-rule="evenodd" clip-rule="evenodd" d="M582 591V577.624C582 564.009 570.663 552.867 556.808 552.867H484.185C470.331 552.867 459 564.009 459 577.624V591H582Z" fill="#f96d24"/></g></g></g></g></svg>